<mxfile host="app.diagrams.net" modified="2020-11-29T11:18:08.540Z" agent="5.0 (Windows NT 10.0; Win64; x64) AppleWebKit/537.36 (KHTML, like Gecko) Chrome/87.0.4280.66 Safari/537.36" etag="Zz5iPwAgRvsJlFSeBilf" version="13.10.4" type="github">
  <diagram id="z-gkQRE5e5ikBpBc3erj" name="Page-1">
    <mxGraphModel dx="1038" dy="587" grid="1" gridSize="10" guides="1" tooltips="1" connect="1" arrows="1" fold="1" page="1" pageScale="1" pageWidth="827" pageHeight="1169" math="0" shadow="0">
      <root>
        <mxCell id="0" />
        <mxCell id="1" parent="0" />
        <mxCell id="oa1nSMIygXGPP1DGTzCM-1" value="" style="rounded=0;whiteSpace=wrap;html=1;" vertex="1" parent="1">
          <mxGeometry x="294" y="150" width="156" height="50" as="geometry" />
        </mxCell>
        <mxCell id="oa1nSMIygXGPP1DGTzCM-3" value="return address" style="rounded=0;whiteSpace=wrap;html=1;" vertex="1" parent="1">
          <mxGeometry x="294" y="200" width="156" height="20" as="geometry" />
        </mxCell>
        <mxCell id="oa1nSMIygXGPP1DGTzCM-4" value="previous ebp" style="rounded=0;whiteSpace=wrap;html=1;" vertex="1" parent="1">
          <mxGeometry x="294" y="220" width="156" height="20" as="geometry" />
        </mxCell>
        <mxCell id="oa1nSMIygXGPP1DGTzCM-7" value="high addr" style="text;html=1;strokeColor=none;fillColor=none;align=center;verticalAlign=middle;whiteSpace=wrap;rounded=0;" vertex="1" parent="1">
          <mxGeometry x="210" y="20" width="80" height="20" as="geometry" />
        </mxCell>
        <mxCell id="oa1nSMIygXGPP1DGTzCM-8" value="low&amp;nbsp;addr" style="text;html=1;strokeColor=none;fillColor=none;align=center;verticalAlign=middle;whiteSpace=wrap;rounded=0;" vertex="1" parent="1">
          <mxGeometry x="214" y="330" width="80" height="20" as="geometry" />
        </mxCell>
        <mxCell id="oa1nSMIygXGPP1DGTzCM-9" value="" style="rounded=0;whiteSpace=wrap;html=1;" vertex="1" parent="1">
          <mxGeometry x="294" y="240" width="156" height="60" as="geometry" />
        </mxCell>
        <mxCell id="oa1nSMIygXGPP1DGTzCM-11" value="" style="endArrow=classic;html=1;entryX=0;entryY=0;entryDx=0;entryDy=0;" edge="1" parent="1" target="oa1nSMIygXGPP1DGTzCM-9">
          <mxGeometry width="50" height="50" relative="1" as="geometry">
            <mxPoint x="220" y="240" as="sourcePoint" />
            <mxPoint x="440" y="270" as="targetPoint" />
          </mxGeometry>
        </mxCell>
        <mxCell id="oa1nSMIygXGPP1DGTzCM-12" value="ebp" style="text;html=1;strokeColor=none;fillColor=none;align=center;verticalAlign=middle;whiteSpace=wrap;rounded=0;" vertex="1" parent="1">
          <mxGeometry x="180" y="230" width="40" height="20" as="geometry" />
        </mxCell>
        <mxCell id="oa1nSMIygXGPP1DGTzCM-13" value="" style="endArrow=classic;html=1;entryX=0;entryY=0;entryDx=0;entryDy=0;" edge="1" parent="1">
          <mxGeometry width="50" height="50" relative="1" as="geometry">
            <mxPoint x="223" y="300" as="sourcePoint" />
            <mxPoint x="297" y="300" as="targetPoint" />
          </mxGeometry>
        </mxCell>
        <mxCell id="oa1nSMIygXGPP1DGTzCM-14" value="esp" style="text;html=1;strokeColor=none;fillColor=none;align=center;verticalAlign=middle;whiteSpace=wrap;rounded=0;" vertex="1" parent="1">
          <mxGeometry x="183" y="290" width="40" height="20" as="geometry" />
        </mxCell>
        <mxCell id="oa1nSMIygXGPP1DGTzCM-20" value="" style="endArrow=classic;html=1;exitX=0;exitY=0.5;exitDx=0;exitDy=0;" edge="1" parent="1" source="oa1nSMIygXGPP1DGTzCM-4">
          <mxGeometry width="50" height="50" relative="1" as="geometry">
            <mxPoint x="390" y="310" as="sourcePoint" />
            <mxPoint x="210" y="200" as="targetPoint" />
          </mxGeometry>
        </mxCell>
        <mxCell id="oa1nSMIygXGPP1DGTzCM-21" value="" style="endArrow=classic;html=1;entryX=0;entryY=0;entryDx=0;entryDy=0;" edge="1" parent="1" target="oa1nSMIygXGPP1DGTzCM-1">
          <mxGeometry width="50" height="50" relative="1" as="geometry">
            <mxPoint x="210" y="200" as="sourcePoint" />
            <mxPoint x="290" y="150" as="targetPoint" />
          </mxGeometry>
        </mxCell>
        <mxCell id="oa1nSMIygXGPP1DGTzCM-22" value="return address" style="rounded=0;whiteSpace=wrap;html=1;" vertex="1" parent="1">
          <mxGeometry x="294" y="110" width="156" height="20" as="geometry" />
        </mxCell>
        <mxCell id="oa1nSMIygXGPP1DGTzCM-23" value="previous ebp" style="rounded=0;whiteSpace=wrap;html=1;" vertex="1" parent="1">
          <mxGeometry x="294" y="130" width="156" height="20" as="geometry" />
        </mxCell>
        <mxCell id="oa1nSMIygXGPP1DGTzCM-24" value="" style="rounded=0;whiteSpace=wrap;html=1;" vertex="1" parent="1">
          <mxGeometry x="294" y="60" width="156" height="50" as="geometry" />
        </mxCell>
        <mxCell id="oa1nSMIygXGPP1DGTzCM-25" value="" style="endArrow=classic;html=1;exitX=0;exitY=0.5;exitDx=0;exitDy=0;" edge="1" parent="1" source="oa1nSMIygXGPP1DGTzCM-23">
          <mxGeometry width="50" height="50" relative="1" as="geometry">
            <mxPoint x="390" y="310" as="sourcePoint" />
            <mxPoint x="220" y="100" as="targetPoint" />
          </mxGeometry>
        </mxCell>
        <mxCell id="oa1nSMIygXGPP1DGTzCM-26" value="" style="endArrow=classic;html=1;entryX=0;entryY=0;entryDx=0;entryDy=0;" edge="1" parent="1" target="oa1nSMIygXGPP1DGTzCM-24">
          <mxGeometry width="50" height="50" relative="1" as="geometry">
            <mxPoint x="220" y="100" as="sourcePoint" />
            <mxPoint x="290" y="50" as="targetPoint" />
          </mxGeometry>
        </mxCell>
        <mxCell id="oa1nSMIygXGPP1DGTzCM-27" value="10h" style="rounded=0;whiteSpace=wrap;html=1;" vertex="1" parent="1">
          <mxGeometry x="294" y="240" width="156" height="30" as="geometry" />
        </mxCell>
        <mxCell id="oa1nSMIygXGPP1DGTzCM-28" value="" style="endArrow=classic;html=1;entryX=0;entryY=0.5;entryDx=0;entryDy=0;" edge="1" parent="1" target="oa1nSMIygXGPP1DGTzCM-9">
          <mxGeometry width="50" height="50" relative="1" as="geometry">
            <mxPoint x="220" y="270" as="sourcePoint" />
            <mxPoint x="440" y="260" as="targetPoint" />
          </mxGeometry>
        </mxCell>
        <mxCell id="oa1nSMIygXGPP1DGTzCM-29" value="eax" style="text;html=1;strokeColor=none;fillColor=none;align=center;verticalAlign=middle;whiteSpace=wrap;rounded=0;" vertex="1" parent="1">
          <mxGeometry x="180" y="260" width="40" height="20" as="geometry" />
        </mxCell>
      </root>
    </mxGraphModel>
  </diagram>
</mxfile>
